{
  "source": "C:\\Users\\Peter\\Desktop\\stuff\\MIUN\\quantitative_research\\video_compression\\videos\\UVG\\HoneyBee_1920x1080_120fps_420_8bit_YUV.y4m",
  "output": "C:\\Users\\Peter\\Desktop\\stuff\\MIUN\\quantitative_research\\video_compression\\compressed_videos\\UVG\\vp9\\2\\HoneyBee_1920x1080_120fps_420_8bit_YUV_vp9.webm",
  "codec": "vp9",
  "ok": "[yuv4mpegpipe @ 0000025e3d365280] Stream #0: not enough frames to estimate rate; consider increasing probesize\nInput #0, yuv4mpegpipe, from 'C:\\Users\\Peter\\Desktop\\stuff\\MIUN\\quantitative_research\\video_compression\\videos\\UVG\\HoneyBee_1920x1080_120fps_420_8bit_YUV.y4m':\n  Duration: 00:00:05.00, start: 0.000000, bitrate: 2985989 kb/s\n  Stream #0:0: Video: rawvideo (I420 / 0x30323449), yuv420p(progressive), 1920x1080, 120 fps, 120 tbr, 120 tbn\n[out#0/webm @ 0000025e3d368e00] Codec AVOption b:a (set bitrate (in bits/s)) has not been used for any stream. The most likely reason is either wrong type (e.g. a video option with no video streams) or that it is a private option of some decoder which was not actually used for any stream.\nStream mapping:\n  Stream #0:0 -> #0:0 (rawvideo (native) -> vp9 (libvpx-vp9))\nPress [q] to stop, [?] for help\n[libvpx-vp9 @ 0000025e3d36bf80] v1.15.2-100-g40561f514\nOutput #0, webm, to 'C:\\Users\\Peter\\Desktop\\stuff\\MIUN\\quantitative_research\\video_compression\\compressed_videos\\UVG\\vp9\\2\\HoneyBee_1920x1080_120fps_420_8bit_YUV_vp9.webm':\n  Metadata:\n    encoder         : Lavf62.3.100\n  Stream #0:0: Video: vp9, yuv420p(tv, progressive), 1920x1080, q=2-31, 2000 kb/s, 120 fps, 1k tbn\n    Metadata:\n      encoder         : Lavc62.11.100 libvpx-vp9\n    Side data:\n      cpb: bitrate max/min/avg: 0/0/0 buffer size: 2000000 vbv_delay: N/A\nframe=    0 fps=0.0 q=0.0 size=       0KiB time=N/A bitrate=N/A speed=N/A elapsed=0:00:00.51    \nframe=    2 fps=1.9 q=63.0 size=       0KiB time=00:00:00.01 bitrate= 230.9kbits/s speed=0.0158x elapsed=0:00:01.05    \nframe=    6 fps=3.8 q=51.0 size=       0KiB time=00:00:00.04 bitrate=  92.4kbits/s speed=0.0265x elapsed=0:00:01.57    \nframe=    8 fps=3.8 q=46.0 size=       0KiB time=00:00:00.06 bitrate=  57.7kbits/s speed=0.0319x elapsed=0:00:02.08    \nframe=   11 fps=4.2 q=38.0 size=       0KiB time=00:00:00.09 bitrate=  42.0kbits/s speed=0.0351x elapsed=0:00:02.61    \nframe=   14 fps=4.5 q=52.0 size=       0KiB time=00:00:00.11 bitrate=  33.0kbits/s speed=0.0371x elapsed=0:00:03.14    \nframe=   16 fps=4.4 q=30.0 size=       0KiB time=00:00:00.13 bitrate=  28.9kbits/s speed=0.0363x elapsed=0:00:03.67    \nframe=   19 fps=4.5 q=33.0 size=       0KiB time=00:00:00.15 bitrate=  24.3kbits/s speed=0.0378x elapsed=0:00:04.19    \nframe=   21 fps=4.4 q=30.0 size=       0KiB time=00:00:00.17 bitrate=  22.0kbits/s speed=0.0371x elapsed=0:00:04.72    \nframe=   23 fps=4.4 q=31.0 size=       0KiB time=00:00:00.19 bitrate=  20.1kbits/s speed=0.0366x elapsed=0:00:05.24    \nframe=   25 fps=4.3 q=30.0 size=       0KiB time=00:00:00.20 bitrate=  18.5kbits/s speed=0.036x elapsed=0:00:05.78    \nframe=   27 fps=4.3 q=30.0 size=       0KiB time=00:00:00.22 bitrate=  17.1kbits/s speed=0.0357x elapsed=0:00:06.30    \nframe=   29 fps=4.2 q=31.0 size=       0KiB time=00:00:00.24 bitrate=  15.9kbits/s speed=0.0353x elapsed=0:00:06.84    \nframe=   30 fps=4.1 q=30.0 size=       0KiB time=00:00:00.25 bitrate=  15.4kbits/s speed=0.0339x elapsed=0:00:07.37    \nframe=   32 fps=4.1 q=31.0 size=       0KiB time=00:00:00.26 bitrate=  14.4kbits/s speed=0.0338x elapsed=0:00:07.89    \nframe=   34 fps=4.0 q=27.0 size=       0KiB time=00:00:00.28 bitrate=  13.6kbits/s speed=0.0337x elapsed=0:00:08.41    \nframe=   37 fps=4.1 q=27.0 size=       0KiB time=00:00:00.30 bitrate=  12.5kbits/s speed=0.0345x elapsed=0:00:08.93    \nframe=   39 fps=4.1 q=26.0 size=       0KiB time=00:00:00.32 bitrate=  11.8kbits/s speed=0.0344x elapsed=0:00:09.44    \nframe=   41 fps=4.1 q=26.0 size=       0KiB time=00:00:00.34 bitrate=  11.3kbits/s speed=0.0343x elapsed=0:00:09.96    \nframe=   44 fps=4.2 q=27.0 size=       0KiB time=00:00:00.36 bitrate=  10.5kbits/s speed=0.035x elapsed=0:00:10.48    \nframe=   45 fps=4.1 q=27.0 size=       0KiB time=00:00:00.37 bitrate=  10.3kbits/s speed=0.0341x elapsed=0:00:11.00    \nframe=   46 fps=4.0 q=16.0 size=       0KiB time=00:00:00.38 bitrate=  10.0kbits/s speed=0.0333x elapsed=0:00:11.51    \nframe=   49 fps=4.1 q=24.0 size=       0KiB time=00:00:00.40 bitrate=   9.4kbits/s speed=0.0339x elapsed=0:00:12.04    \nframe=   51 fps=4.1 q=25.0 size=       0KiB time=00:00:00.42 bitrate=   9.1kbits/s speed=0.0338x elapsed=0:00:12.58    \nframe=   53 fps=4.0 q=25.0 size=       0KiB time=00:00:00.44 bitrate=   8.7kbits/s speed=0.0337x elapsed=0:00:13.12    \nframe=   56 fps=4.1 q=25.0 size=       0KiB time=00:00:00.46 bitrate=   8.2kbits/s speed=0.0342x elapsed=0:00:13.63    \nframe=   58 fps=4.1 q=25.0 size=       0KiB time=00:00:00.48 bitrate=   8.0kbits/s speed=0.0341x elapsed=0:00:14.15    \nframe=   60 fps=4.1 q=25.0 size=       0KiB time=00:00:00.50 bitrate=   7.7kbits/s speed=0.034x elapsed=0:00:14.68    \nframe=   60 fps=3.9 q=25.0 size=       0KiB time=00:00:00.50 bitrate=   7.7kbits/s speed=0.0329x elapsed=0:00:15.21    \nframe=   63 fps=4.0 q=22.0 size=       0KiB time=00:00:00.52 bitrate=   7.3kbits/s speed=0.0334x elapsed=0:00:15.74    \nframe=   66 fps=4.1 q=24.0 size=       0KiB time=00:00:00.55 bitrate=   7.0kbits/s speed=0.0338x elapsed=0:00:16.26    \nframe=   69 fps=4.1 q=25.0 size=       0KiB time=00:00:00.57 bitrate=   6.7kbits/s speed=0.0342x elapsed=0:00:16.78    \nframe=   72 fps=4.2 q=25.0 size=       0KiB time=00:00:00.60 bitrate=   6.4kbits/s speed=0.0347x elapsed=0:00:17.31    \nframe=   75 fps=4.2 q=24.0 size=       0KiB time=00:00:00.62 bitrate=   6.2kbits/s speed=0.035x elapsed=0:00:17.83    \nframe=   76 fps=4.1 q=14.0 size=       0KiB time=00:00:00.63 bitrate=   6.1kbits/s speed=0.0345x elapsed=0:00:18.35    \nframe=   79 fps=4.2 q=23.0 size=       0KiB time=00:00:00.65 bitrate=   5.8kbits/s speed=0.0349x elapsed=0:00:18.88    \nframe=   81 fps=4.2 q=25.0 size=       0KiB time=00:00:00.67 bitrate=   5.7kbits/s speed=0.0348x elapsed=0:00:19.40    \nframe=   84 fps=4.2 q=25.0 size=       0KiB time=00:00:00.70 bitrate=   5.5kbits/s speed=0.0351x elapsed=0:00:19.92    \nframe=   88 fps=4.3 q=24.0 size=       0KiB time=00:00:00.73 bitrate=   5.2kbits/s speed=0.0359x elapsed=0:00:20.43    \nframe=   90 fps=4.3 q=24.0 size=       0KiB time=00:00:00.75 bitrate=   5.1kbits/s speed=0.0358x elapsed=0:00:20.95    \nframe=   91 fps=4.2 q=13.0 size=       0KiB time=00:00:00.75 bitrate=   5.1kbits/s speed=0.0353x elapsed=0:00:21.47    \nframe=   93 fps=4.2 q=21.0 size=       0KiB time=00:00:00.77 bitrate=   5.0kbits/s speed=0.0352x elapsed=0:00:21.99    \nframe=   96 fps=4.3 q=23.0 size=       0KiB time=00:00:00.80 bitrate=   4.8kbits/s speed=0.0355x elapsed=0:00:22.51    \nframe=  100 fps=4.3 q=23.0 size=       0KiB time=00:00:00.83 bitrate=   4.6kbits/s speed=0.0362x elapsed=0:00:23.02    \nframe=  104 fps=4.4 q=23.0 size=       0KiB time=00:00:00.86 bitrate=   4.4kbits/s speed=0.0368x elapsed=0:00:23.54    \nframe=  105 fps=4.4 q=24.0 size=       0KiB time=00:00:00.87 bitrate=   4.4kbits/s speed=0.0364x elapsed=0:00:24.05    \nframe=  107 fps=4.4 q=27.0 size=       0KiB time=00:00:00.89 bitrate=   4.3kbits/s speed=0.0363x elapsed=0:00:24.57    \nframe=  111 fps=4.4 q=25.0 size=       0KiB time=00:00:00.92 bitrate=   4.2kbits/s speed=0.0369x elapsed=0:00:25.10    \nframe=  114 fps=4.5 q=25.0 size=       0KiB time=00:00:00.95 bitrate=   4.1kbits/s speed=0.0371x elapsed=0:00:25.61    \nframe=  116 fps=4.4 q=25.0 size=       0KiB time=00:00:00.96 bitrate=   4.0kbits/s speed=0.037x elapsed=0:00:26.14    \nframe=  118 fps=4.4 q=22.0 size=       0KiB time=00:00:00.98 bitrate=   3.9kbits/s speed=0.0369x elapsed=0:00:26.66    \nframe=  121 fps=4.5 q=22.0 size=       0KiB time=00:00:01.00 bitrate=   3.8kbits/s speed=0.0371x elapsed=0:00:27.18    \nframe=  124 fps=4.5 q=23.0 size=       0KiB time=00:00:01.03 bitrate=   3.7kbits/s speed=0.0373x elapsed=0:00:27.70    \nframe=  127 fps=4.5 q=23.0 size=       0KiB time=00:00:01.05 bitrate=   3.6kbits/s speed=0.0375x elapsed=0:00:28.21    \nframe=  128 fps=4.5 q=23.0 size=       0KiB time=00:00:01.06 bitrate=   3.6kbits/s speed=0.0371x elapsed=0:00:28.72    \nframe=  131 fps=4.5 q=28.0 size=     256KiB time=00:00:01.09 bitrate=1921.1kbits/s speed=0.0373x elapsed=0:00:29.24    \nframe=  135 fps=4.5 q=34.0 size=     256KiB time=00:00:01.12 bitrate=1864.1kbits/s speed=0.0378x elapsed=0:00:29.77    \nframe=  137 fps=4.5 q=35.0 size=     256KiB time=00:00:01.14 bitrate=1836.9kbits/s speed=0.0377x elapsed=0:00:30.28    \nframe=  141 fps=4.6 q=33.0 size=     256KiB time=00:00:01.17 bitrate=1784.8kbits/s speed=0.0381x elapsed=0:00:30.80    \nframe=  143 fps=4.6 q=32.0 size=     256KiB time=00:00:01.19 bitrate=1759.8kbits/s speed=0.038x elapsed=0:00:31.33    \nframe=  145 fps=4.5 q=19.0 size=     256KiB time=00:00:01.20 bitrate=1735.6kbits/s speed=0.0379x elapsed=0:00:31.87    \nframe=  148 fps=4.6 q=36.0 size=     256KiB time=00:00:01.23 bitrate=1700.4kbits/s speed=0.0381x elapsed=0:00:32.40    \nframe=  151 fps=4.6 q=27.0 size=     256KiB time=00:00:01.25 bitrate=1666.6kbits/s speed=0.0382x elapsed=0:00:32.92    \nframe=  153 fps=4.6 q=29.0 size=     256KiB time=00:00:01.27 bitrate=1644.8kbits/s speed=0.0381x elapsed=0:00:33.44    \nframe=  156 fps=4.6 q=23.0 size=     256KiB time=00:00:01.30 bitrate=1613.2kbits/s speed=0.0383x elapsed=0:00:33.98    \nframe=  158 fps=4.6 q=24.0 size=     256KiB time=00:00:01.31 bitrate=1592.8kbits/s speed=0.0382x elapsed=0:00:34.51    \nframe=  158 fps=4.5 q=24.0 size=     256KiB time=00:00:01.31 bitrate=1592.8kbits/s speed=0.0376x elapsed=0:00:35.02    \nframe=  160 fps=4.5 q=22.0 size=     256KiB time=00:00:01.33 bitrate=1572.9kbits/s speed=0.0375x elapsed=0:00:35.55    \nframe=  163 fps=4.5 q=22.0 size=     256KiB time=00:00:01.35 bitrate=1543.9kbits/s speed=0.0376x elapsed=0:00:36.08    \nframe=  165 fps=4.5 q=22.0 size=     256KiB time=00:00:01.37 bitrate=1525.2kbits/s speed=0.0376x elapsed=0:00:36.60    \nframe=  168 fps=4.5 q=21.0 size=     256KiB time=00:00:01.40 bitrate=1498.0kbits/s speed=0.0377x elapsed=0:00:37.12    \nframe=  171 fps=4.5 q=21.0 size=     256KiB time=00:00:01.42 bitrate=1471.7kbits/s speed=0.0379x elapsed=0:00:37.64    \nframe=  173 fps=4.5 q=22.0 size=     256KiB time=00:00:01.44 bitrate=1454.7kbits/s speed=0.0378x elapsed=0:00:38.16    \nframe=  173 fps=4.5 q=22.0 size=     256KiB time=00:00:01.44 bitrate=1454.7kbits/s speed=0.0373x elapsed=0:00:38.68    \nframe=  176 fps=4.5 q=23.0 size=     256KiB time=00:00:01.46 bitrate=1429.9kbits/s speed=0.0374x elapsed=0:00:39.21    \nframe=  179 fps=4.5 q=21.0 size=     256KiB time=00:00:01.49 bitrate=1405.9kbits/s speed=0.0375x elapsed=0:00:39.73    \nframe=  181 fps=4.5 q=22.0 size=     256KiB time=00:00:01.50 bitrate=1390.4kbits/s speed=0.0375x elapsed=0:00:40.26    \nframe=  184 fps=4.5 q=22.0 size=     256KiB time=00:00:01.53 bitrate=1367.7kbits/s speed=0.0376x elapsed=0:00:40.77    \nframe=  187 fps=4.5 q=21.0 size=     256KiB time=00:00:01.55 bitrate=1345.8kbits/s speed=0.0377x elapsed=0:00:41.29    \nframe=  188 fps=4.5 q=22.0 size=     256KiB time=00:00:01.56 bitrate=1338.6kbits/s speed=0.0375x elapsed=0:00:41.81    \nframe=  189 fps=4.5 q=12.0 size=     256KiB time=00:00:01.57 bitrate=1331.5kbits/s speed=0.0372x elapsed=0:00:42.33    \nframe=  191 fps=4.5 q=24.0 size=     256KiB time=00:00:01.59 bitrate=1317.6kbits/s speed=0.0371x elapsed=0:00:42.86    \nframe=  194 fps=4.5 q=23.0 size=     256KiB time=00:00:01.61 bitrate=1297.2kbits/s speed=0.0373x elapsed=0:00:43.38    \nframe=  197 fps=4.5 q=23.0 size=     256KiB time=00:00:01.64 bitrate=1277.5kbits/s speed=0.0374x elapsed=0:00:43.90    \nframe=  200 fps=4.5 q=21.0 size=     256KiB time=00:00:01.66 bitrate=1258.3kbits/s speed=0.0375x elapsed=0:00:44.41    \nframe=  202 fps=4.5 q=23.0 size=     256KiB time=00:00:01.68 bitrate=1245.8kbits/s speed=0.0374x elapsed=0:00:44.95    \nframe=  203 fps=4.5 q=20.0 size=     256KiB time=00:00:01.69 bitrate=1239.7kbits/s speed=0.0372x elapsed=0:00:45.46    \nframe=  204 fps=4.4 q=11.0 size=     256KiB time=00:00:01.70 bitrate=1233.6kbits/s speed=0.037x elapsed=0:00:45.98    \nframe=  207 fps=4.5 q=21.0 size=     256KiB time=00:00:01.72 bitrate=1215.7kbits/s speed=0.0371x elapsed=0:00:46.50    \nframe=  209 fps=4.4 q=21.0 size=     256KiB time=00:00:01.74 bitrate=1204.1kbits/s speed=0.037x elapsed=0:00:47.03    \nframe=  212 fps=4.5 q=22.0 size=     256KiB time=00:00:01.76 bitrate=1187.1kbits/s speed=0.0372x elapsed=0:00:47.55    \nframe=  214 fps=4.5 q=22.0 size=     256KiB time=00:00:01.78 bitrate=1176.0kbits/s speed=0.0371x elapsed=0:00:48.07    \nframe=  217 fps=4.5 q=22.0 size=     256KiB time=00:00:01.80 bitrate=1159.7kbits/s speed=0.0372x elapsed=0:00:48.58    \nframe=  218 fps=4.4 q=22.0 size=     256KiB time=00:00:01.81 bitrate=1154.4kbits/s speed=0.037x elapsed=0:00:49.10    \nframe=  219 fps=4.4 q=12.0 size=     256KiB time=00:00:01.82 bitrate=1149.1kbits/s speed=0.0368x elapsed=0:00:49.63    \nframe=  221 fps=4.4 q=22.0 size=     256KiB time=00:00:01.84 bitrate=1138.7kbits/s speed=0.0367x elapsed=0:00:50.16    \nframe=  223 fps=4.4 q=23.0 size=     256KiB time=00:00:01.85 bitrate=1128.5kbits/s speed=0.0367x elapsed=0:00:50.68    \nframe=  226 fps=4.4 q=20.0 size=     256KiB time=00:00:01.88 bitrate=1113.5kbits/s speed=0.0368x elapsed=0:00:51.20    \nframe=  228 fps=4.4 q=21.0 size=     256KiB time=00:00:01.90 bitrate=1103.8kbits/s speed=0.0367x elapsed=0:00:51.75    \nframe=  231 fps=4.4 q=22.0 size=     256KiB time=00:00:01.92 bitrate=1089.4kbits/s speed=0.0368x elapsed=0:00:52.28    \nframe=  233 fps=4.4 q=21.0 size=     256KiB time=00:00:01.94 bitrate=1080.1kbits/s speed=0.0368x elapsed=0:00:52.80    \nframe=  233 fps=4.4 q=21.0 size=     256KiB time=00:00:01.94 bitrate=1080.1kbits/s speed=0.0364x elapsed=0:00:53.32    \nframe=  235 fps=4.4 q=25.0 size=     256KiB time=00:00:01.95 bitrate=1070.9kbits/s speed=0.0364x elapsed=0:00:53.84    \nframe=  237 fps=4.4 q=21.0 size=     256KiB time=00:00:01.97 bitrate=1061.8kbits/s speed=0.0363x elapsed=0:00:54.37    \nframe=  240 fps=4.4 q=21.0 size=     256KiB time=00:00:02.00 bitrate=1048.6kbits/s speed=0.0364x elapsed=0:00:54.90    \nframe=  243 fps=4.4 q=23.0 size=     256KiB time=00:00:02.02 bitrate=1035.6kbits/s speed=0.0365x elapsed=0:00:55.42    \nframe=  244 fps=4.4 q=23.0 size=     256KiB time=00:00:02.03 bitrate=1031.4kbits/s speed=0.0363x elapsed=0:00:55.94    \nframe=  245 fps=4.3 q=13.0 size=     256KiB time=00:00:02.04 bitrate=1027.2kbits/s speed=0.0362x elapsed=0:00:56.47    \nframe=  248 fps=4.4 q=22.0 size=     256KiB time=00:00:02.06 bitrate=1014.8kbits/s speed=0.0363x elapsed=0:00:56.98    \nframe=  251 fps=4.4 q=22.0 size=     256KiB time=00:00:02.09 bitrate=1002.6kbits/s speed=0.0364x elapsed=0:00:57.51    \nframe=  254 fps=4.4 q=21.0 size=     256KiB time=00:00:02.10 bitrate= 994.7kbits/s speed=0.0363x elapsed=0:00:58.03    \nframe=  256 fps=4.4 q=20.0 size=     256KiB time=00:00:02.13 bitrate= 983.0kbits/s speed=0.0364x elapsed=0:00:58.56    \nframe=  257 fps=4.3 q=12.0 size=     256KiB time=00:00:02.14 bitrate= 979.2kbits/s speed=0.0362x elapsed=0:00:59.09    \nframe=  260 fps=4.4 q=27.0 size=    1024KiB time=00:00:02.16 bitrate=3871.7kbits/s speed=0.0363x elapsed=0:00:59.62    \nframe=  264 fps=4.4 q=24.0 size=    1024KiB time=00:00:02.19 bitrate=3827.5kbits/s speed=0.0364x elapsed=0:01:00.14    \nframe=  266 fps=4.4 q=24.0 size=    1024KiB time=00:00:02.21 bitrate=3784.3kbits/s speed=0.0365x elapsed=0:01:00.67    \nframe=  269 fps=4.4 q=23.0 size=    1024KiB time=00:00:02.24 bitrate=3742.1kbits/s speed=0.0366x elapsed=0:01:01.19    \nframe=  271 fps=4.4 q=23.0 size=    1024KiB time=00:00:02.25 bitrate=3714.5kbits/s speed=0.0366x elapsed=0:01:01.72    \nframe=  272 fps=4.4 q=12.0 size=    1024KiB time=00:00:02.26 bitrate=3700.9kbits/s speed=0.0364x elapsed=0:01:02.24    \nframe=  274 fps=4.4 q=24.0 size=    1024KiB time=00:00:02.28 bitrate=3673.8kbits/s speed=0.0364x elapsed=0:01:02.76    \nframe=  277 fps=4.4 q=24.0 size=    1024KiB time=00:00:02.30 bitrate=3634.1kbits/s speed=0.0365x elapsed=0:01:03.27    \nframe=  280 fps=4.4 q=23.0 size=    1024KiB time=00:00:02.33 bitrate=3595.1kbits/s speed=0.0366x elapsed=0:01:03.78    \nframe=  282 fps=4.4 q=24.0 size=    1024KiB time=00:00:02.35 bitrate=3569.6kbits/s speed=0.0365x elapsed=0:01:04.30    \nframe=  285 fps=4.4 q=23.0 size=    1024KiB time=00:00:02.37 bitrate=3532.0kbits/s speed=0.0366x elapsed=0:01:04.82    \nframe=  286 fps=4.4 q=23.0 size=    1024KiB time=00:00:02.38 bitrate=3519.7kbits/s speed=0.0365x elapsed=0:01:05.34    \nframe=  287 fps=4.4 q=13.0 size=    1024KiB time=00:00:02.39 bitrate=3507.4kbits/s speed=0.0363x elapsed=0:01:05.85    \nframe=  289 fps=4.4 q=24.0 size=    1024KiB time=00:00:02.40 bitrate=3483.2kbits/s speed=0.0363x elapsed=0:01:06.36    \nframe=  292 fps=4.4 q=24.0 size=    1024KiB time=00:00:02.43 bitrate=3447.4kbits/s speed=0.0364x elapsed=0:01:06.88    \nframe=  295 fps=4.4 q=23.0 size=    1024KiB time=00:00:02.45 bitrate=3412.3kbits/s speed=0.0365x elapsed=0:01:07.40    \nframe=  297 fps=4.4 q=22.0 size=    1024KiB time=00:00:02.47 bitrate=3389.3kbits/s speed=0.0364x elapsed=0:01:07.93    \nframe=  300 fps=4.4 q=24.0 size=    1024KiB time=00:00:02.50 bitrate=3355.4kbits/s speed=0.0365x elapsed=0:01:08.46    \nframe=  301 fps=4.4 q=24.0 size=    1024KiB time=00:00:02.50 bitrate=3344.3kbits/s speed=0.0364x elapsed=0:01:08.98    \nframe=  302 fps=4.3 q=13.0 size=    1024KiB time=00:00:02.51 bitrate=3333.2kbits/s speed=0.0362x elapsed=0:01:09.50    \nframe=  305 fps=4.4 q=22.0 size=    1024KiB time=00:00:02.53 bitrate=3311.3kbits/s speed=0.0362x elapsed=0:01:10.02    \nframe=  307 fps=4.4 q=22.0 size=    1024KiB time=00:00:02.55 bitrate=3278.9kbits/s speed=0.0363x elapsed=0:01:10.54    \nframe=  310 fps=4.4 q=23.0 size=    1024KiB time=00:00:02.58 bitrate=3247.2kbits/s speed=0.0363x elapsed=0:01:11.07    \nframe=  312 fps=4.4 q=22.0 size=    1024KiB time=00:00:02.60 bitrate=3226.4kbits/s speed=0.0363x elapsed=0:01:11.59    \nframe=  314 fps=4.4 q=23.0 size=    1024KiB time=00:00:02.61 bitrate=3205.8kbits/s speed=0.0363x elapsed=0:01:12.11    \nframe=  316 fps=4.3 q=23.0 size=    1024KiB time=00:00:02.63 bitrate=3185.5kbits/s speed=0.0362x elapsed=0:01:12.64    \nframe=  316 fps=4.3 q=23.0 size=    1024KiB time=00:00:02.63 bitrate=3185.5kbits/s speed=0.036x elapsed=0:01:13.17    \nframe=  319 fps=4.3 q=23.0 size=    1024KiB time=00:00:02.65 bitrate=3155.6kbits/s speed=0.0361x elapsed=0:01:13.70    \nframe=  321 fps=4.3 q=23.0 size=    1024KiB time=00:00:02.67 bitrate=3135.9kbits/s speed=0.036x elapsed=0:01:14.22    \nframe=  323 fps=4.3 q=23.0 size=    1024KiB time=00:00:02.69 bitrate=3116.5kbits/s speed=0.036x elapsed=0:01:14.74    \nframe=  326 fps=4.3 q=23.0 size=    1024KiB time=00:00:02.71 bitrate=3087.8kbits/s speed=0.0361x elapsed=0:01:15.25    \nframe=  328 fps=4.3 q=23.0 size=    1024KiB time=00:00:02.73 bitrate=3069.0kbits/s speed=0.0361x elapsed=0:01:15.77    \nframe=  331 fps=4.3 q=24.0 size=    1024KiB time=00:00:02.75 bitrate=3041.2kbits/s speed=0.0362x elapsed=0:01:16.28    \nframe=  331 fps=4.3 q=24.0 size=    1024KiB time=00:00:02.75 bitrate=3041.2kbits/s speed=0.0359x elapsed=0:01:16.80    \nframe=  333 fps=4.3 q=23.0 size=    1024KiB time=00:00:02.77 bitrate=3022.9kbits/s speed=0.0359x elapsed=0:01:17.32    \nframe=  336 fps=4.3 q=21.0 size=    1024KiB time=00:00:02.80 bitrate=2995.9kbits/s speed=0.036x elapsed=0:01:17.84    \nframe=  338 fps=4.3 q=22.0 size=    1024KiB time=00:00:02.81 bitrate=2978.2kbits/s speed=0.0359x elapsed=0:01:18.36    \nframe=  340 fps=4.3 q=22.0 size=    1024KiB time=00:00:02.83 bitrate=2960.7kbits/s speed=0.0359x elapsed=0:01:18.88    \nframe=  342 fps=4.3 q=22.0 size=    1024KiB time=00:00:02.85 bitrate=2943.4kbits/s speed=0.0359x elapsed=0:01:19.41    \nframe=  345 fps=4.3 q=23.0 size=    1024KiB time=00:00:02.87 bitrate=2917.8kbits/s speed=0.036x elapsed=0:01:19.93    \nframe=  346 fps=4.3 q=21.0 size=    1024KiB time=00:00:02.88 bitrate=2909.3kbits/s speed=0.0358x elapsed=0:01:20.45    \nframe=  347 fps=4.3 q=12.0 size=    1024KiB time=00:00:02.89 bitrate=2901.0kbits/s speed=0.0357x elapsed=0:01:20.98    \nframe=  349 fps=4.3 q=24.0 size=    1024KiB time=00:00:02.90 bitrate=2884.3kbits/s speed=0.0357x elapsed=0:01:21.49    \nframe=  352 fps=4.3 q=22.0 size=    1024KiB time=00:00:02.93 bitrate=2859.8kbits/s speed=0.0358x elapsed=0:01:22.00    \nframe=  355 fps=4.3 q=22.0 size=    1024KiB time=00:00:02.95 bitrate=2835.6kbits/s speed=0.0358x elapsed=0:01:22.53    \nframe=  357 fps=4.3 q=23.0 size=    1024KiB time=00:00:02.97 bitrate=2819.7kbits/s speed=0.0358x elapsed=0:01:23.05    \nframe=  359 fps=4.3 q=22.0 size=    1024KiB time=00:00:02.99 bitrate=2804.0kbits/s speed=0.0358x elapsed=0:01:23.56    \nframe=  361 fps=4.3 q=23.0 size=    1024KiB time=00:00:03.00 bitrate=2788.5kbits/s speed=0.0358x elapsed=0:01:24.09    \nframe=  361 fps=4.3 q=23.0 size=    1024KiB time=00:00:03.00 bitrate=2788.5kbits/s speed=0.0356x elapsed=0:01:24.60    \nframe=  365 fps=4.3 q=23.0 size=    1024KiB time=00:00:03.04 bitrate=2757.9kbits/s speed=0.0357x elapsed=0:01:25.11    \nframe=  367 fps=4.3 q=23.0 size=    1024KiB time=00:00:03.05 bitrate=2742.9kbits/s speed=0.0357x elapsed=0:01:25.65    \nframe=  370 fps=4.3 q=23.0 size=    1024KiB time=00:00:03.08 bitrate=2720.6kbits/s speed=0.0358x elapsed=0:01:26.17    \nframe=  372 fps=4.3 q=22.0 size=    1024KiB time=00:00:03.10 bitrate=2706.0kbits/s speed=0.0358x elapsed=0:01:26.70    \nframe=  372 fps=4.3 q=22.0 size=    1024KiB time=00:00:03.10 bitrate=2706.0kbits/s speed=0.0355x elapsed=0:01:27.23    \nframe=  375 fps=4.3 q=24.0 size=    1024KiB time=00:00:03.12 bitrate=2684.4kbits/s speed=0.0356x elapsed=0:01:27.75    \nframe=  377 fps=4.3 q=23.0 size=    1024KiB time=00:00:03.14 bitrate=2670.1kbits/s speed=0.0356x elapsed=0:01:28.27    \nframe=  380 fps=4.3 q=22.0 size=    1024KiB time=00:00:03.16 bitrate=2649.0kbits/s speed=0.0357x elapsed=0:01:28.79    \nframe=  383 fps=4.3 q=23.0 size=    1024KiB time=00:00:03.19 bitrate=2628.3kbits/s speed=0.0357x elapsed=0:01:29.31    \nframe=  384 fps=4.3 q=23.0 size=    1024KiB time=00:00:03.20 bitrate=2621.4kbits/s speed=0.0356x elapsed=0:01:29.84    \nframe=  387 fps=4.3 q=31.0 size=    1792KiB time=00:00:03.22 bitrate=4552.0kbits/s speed=0.0357x elapsed=0:01:30.36    \nframe=  391 fps=4.3 q=23.0 size=    1792KiB time=00:00:03.25 bitrate=4505.4kbits/s speed=0.0358x elapsed=0:01:30.89    \nframe=  394 fps=4.3 q=22.0 size=    1792KiB time=00:00:03.28 bitrate=4471.1kbits/s speed=0.0359x elapsed=0:01:31.42    \nframe=  397 fps=4.3 q=23.0 size=    1792KiB time=00:00:03.30 bitrate=4437.3kbits/s speed=0.036x elapsed=0:01:31.95    \nframe=  399 fps=4.3 q=24.0 size=    1792KiB time=00:00:03.32 bitrate=4415.1kbits/s speed=0.036x elapsed=0:01:32.47    \nframe=  400 fps=4.3 q=13.0 size=    1792KiB time=00:00:03.33 bitrate=4404.0kbits/s speed=0.0358x elapsed=0:01:32.99    \nframe=  403 fps=4.3 q=23.0 size=    1792KiB time=00:00:03.35 bitrate=4371.2kbits/s speed=0.0359x elapsed=0:01:33.51    \nframe=  406 fps=4.3 q=23.0 size=    1792KiB time=00:00:03.38 bitrate=4338.9kbits/s speed=0.036x elapsed=0:01:34.02    \nframe=  409 fps=4.3 q=23.0 size=    1792KiB time=00:00:03.40 bitrate=4307.1kbits/s speed=0.0361x elapsed=0:01:34.54    \nframe=  411 fps=4.3 q=23.0 size=    1792KiB time=00:00:03.42 bitrate=4286.2kbits/s speed=0.036x elapsed=0:01:35.05    \nframe=  414 fps=4.3 q=23.0 size=    1792KiB time=00:00:03.45 bitrate=4255.1kbits/s speed=0.0361x elapsed=0:01:35.57    \nframe=  414 fps=4.3 q=23.0 size=    1792KiB time=00:00:03.45 bitrate=4255.1kbits/s speed=0.0359x elapsed=0:01:36.10    \nframe=  417 fps=4.3 q=23.0 size=    1792KiB time=00:00:03.47 bitrate=4224.5kbits/s speed=0.036x elapsed=0:01:36.63    \nframe=  419 fps=4.3 q=22.0 size=    1792KiB time=00:00:03.49 bitrate=4204.3kbits/s speed=0.0359x elapsed=0:01:37.15    \nframe=  422 fps=4.3 q=23.0 size=    1792KiB time=00:00:03.51 bitrate=4174.4kbits/s speed=0.036x elapsed=0:01:37.67    \nframe=  425 fps=4.3 q=23.0 size=    1792KiB time=00:00:03.54 bitrate=4145.0kbits/s speed=0.0361x elapsed=0:01:38.19    \nframe=  428 fps=4.3 q=24.0 size=    1792KiB time=00:00:03.56 bitrate=4115.9kbits/s speed=0.0361x elapsed=0:01:38.72    \nframe=  429 fps=4.3 q=24.0 size=    1792KiB time=00:00:03.57 bitrate=4106.3kbits/s speed=0.036x elapsed=0:01:39.24    \nframe=  431 fps=4.3 q=24.0 size=    1792KiB time=00:00:03.59 bitrate=4087.3kbits/s speed=0.036x elapsed=0:01:39.78    \nframe=  433 fps=4.3 q=23.0 size=    1792KiB time=00:00:03.60 bitrate=4068.4kbits/s speed=0.036x elapsed=0:01:40.30    \nframe=  436 fps=4.3 q=23.0 size=    1792KiB time=00:00:03.63 bitrate=4040.4kbits/s speed=0.036x elapsed=0:01:40.83    \nframe=  439 fps=4.3 q=22.0 size=    1792KiB time=00:00:03.65 bitrate=4012.8kbits/s speed=0.0361x elapsed=0:01:41.35    \nframe=  442 fps=4.3 q=23.0 size=    1792KiB time=00:00:03.68 bitrate=3985.5kbits/s speed=0.0362x elapsed=0:01:41.87    \nframe=  444 fps=4.3 q=24.0 size=    1792KiB time=00:00:03.70 bitrate=3967.6kbits/s speed=0.0361x elapsed=0:01:42.40    \nframe=  444 fps=4.3 q=24.0 size=    1792KiB time=00:00:03.70 bitrate=3967.6kbits/s speed=0.0359x elapsed=0:01:42.93    \nframe=  447 fps=4.3 q=23.0 size=    1792KiB time=00:00:03.72 bitrate=3941.0kbits/s speed=0.036x elapsed=0:01:43.45    \nframe=  450 fps=4.3 q=22.0 size=    1792KiB time=00:00:03.75 bitrate=3914.7kbits/s speed=0.0361x elapsed=0:01:43.96    \nframe=  453 fps=4.3 q=22.0 size=    1792KiB time=00:00:03.77 bitrate=3888.8kbits/s speed=0.0361x elapsed=0:01:44.49    \nframe=  456 fps=4.3 q=22.0 size=    1792KiB time=00:00:03.80 bitrate=3863.2kbits/s speed=0.0362x elapsed=0:01:45.01    \nframe=  458 fps=4.3 q=22.0 size=    1792KiB time=00:00:03.81 bitrate=3846.3kbits/s speed=0.0362x elapsed=0:01:45.54    \nframe=  459 fps=4.3 q=23.0 size=    1792KiB time=00:00:03.82 bitrate=3837.9kbits/s speed=0.0361x elapsed=0:01:46.05    \nframe=  461 fps=4.3 q=24.0 size=    1792KiB time=00:00:03.84 bitrate=3821.3kbits/s speed=0.036x elapsed=0:01:46.57    \nframe=  464 fps=4.3 q=23.0 size=    1792KiB time=00:00:03.86 bitrate=3796.6kbits/s speed=0.0361x elapsed=0:01:47.09    \nframe=  468 fps=4.3 q=23.0 size=    1792KiB time=00:00:03.90 bitrate=3764.1kbits/s speed=0.0362x elapsed=0:01:47.62    \nframe=  471 fps=4.4 q=24.0 size=    1792KiB time=00:00:03.92 bitrate=3740.1kbits/s speed=0.0363x elapsed=0:01:48.15    \nframe=  474 fps=4.4 q=25.0 size=    1792KiB time=00:00:03.95 bitrate=3716.5kbits/s speed=0.0363x elapsed=0:01:48.66    \nframe=  474 fps=4.3 q=25.0 size=    1792KiB time=00:00:03.95 bitrate=3716.5kbits/s speed=0.0362x elapsed=0:01:49.20    \nframe=  477 fps=4.3 q=22.0 size=    1792KiB time=00:00:03.97 bitrate=3693.1kbits/s speed=0.0362x elapsed=0:01:49.71    \nframe=  480 fps=4.4 q=21.0 size=    1792KiB time=00:00:04.00 bitrate=3670.0kbits/s speed=0.0363x elapsed=0:01:50.23    \nframe=  483 fps=4.4 q=22.0 size=    1792KiB time=00:00:04.02 bitrate=3647.2kbits/s speed=0.0363x elapsed=0:01:50.75    \nframe=  486 fps=4.4 q=23.0 size=    1792KiB time=00:00:04.05 bitrate=3624.7kbits/s speed=0.0364x elapsed=0:01:51.26    \nframe=  489 fps=4.4 q=21.0 size=    1792KiB time=00:00:04.07 bitrate=3602.5kbits/s speed=0.0365x elapsed=0:01:51.78    \nframe=  489 fps=4.4 q=21.0 size=    1792KiB time=00:00:04.07 bitrate=3602.5kbits/s speed=0.0363x elapsed=0:01:52.31    \nframe=  492 fps=4.4 q=25.0 size=    1792KiB time=00:00:04.10 bitrate=3580.5kbits/s speed=0.0363x elapsed=0:01:52.84    \nframe=  496 fps=4.4 q=24.0 size=    1792KiB time=00:00:04.13 bitrate=3551.6kbits/s speed=0.0365x elapsed=0:01:53.36    \nframe=  499 fps=4.4 q=25.0 size=    1792KiB time=00:00:04.15 bitrate=3530.3kbits/s speed=0.0365x elapsed=0:01:53.88    \nframe=  500 fps=4.4 q=25.0 size=    1792KiB time=00:00:04.16 bitrate=3523.2kbits/s speed=0.0364x elapsed=0:01:54.42    \nframe=  503 fps=4.4 q=23.0 size=    1792KiB time=00:00:04.19 bitrate=3502.2kbits/s speed=0.0365x elapsed=0:01:54.95    \nframe=  506 fps=4.4 q=24.0 size=    1792KiB time=00:00:04.21 bitrate=3481.4kbits/s speed=0.0365x elapsed=0:01:55.46    \nframe=  509 fps=4.4 q=24.0 size=    1792KiB time=00:00:04.24 bitrate=3460.9kbits/s speed=0.0366x elapsed=0:01:55.97    \nframe=  512 fps=4.4 q=24.0 size=    1792KiB time=00:00:04.26 bitrate=3440.6kbits/s speed=0.0366x elapsed=0:01:56.49    \nframe=  513 fps=4.4 q=12.0 size=    1792KiB time=00:00:04.27 bitrate=3433.9kbits/s speed=0.0365x elapsed=0:01:57.03    \nframe=  516 fps=4.4 q=25.0 size=    2304KiB time=00:00:04.30 bitrate=4389.4kbits/s speed=0.0366x elapsed=0:01:57.55    \nframe=  520 fps=4.4 q=25.0 size=    2304KiB time=00:00:04.33 bitrate=4355.6kbits/s speed=0.0367x elapsed=0:01:58.07    \nframe=  524 fps=4.4 q=26.0 size=    2304KiB time=00:00:04.36 bitrate=4322.4kbits/s speed=0.0368x elapsed=0:01:58.61    \nframe=  527 fps=4.4 q=25.0 size=    2304KiB time=00:00:04.39 bitrate=4297.8kbits/s speed=0.0369x elapsed=0:01:59.13    \nframe=  529 fps=4.4 q=24.0 size=    2304KiB time=00:00:04.40 bitrate=4281.5kbits/s speed=0.0368x elapsed=0:01:59.67    \nframe=  532 fps=4.4 q=25.0 size=    2304KiB time=00:00:04.43 bitrate=4257.4kbits/s speed=0.0369x elapsed=0:02:00.18    \nframe=  536 fps=4.4 q=26.0 size=    2304KiB time=00:00:04.46 bitrate=4225.6kbits/s speed=0.037x elapsed=0:02:00.71    \nframe=  540 fps=4.5 q=25.0 size=    2304KiB time=00:00:04.50 bitrate=4194.3kbits/s speed=0.0371x elapsed=0:02:01.25    \nframe=  542 fps=4.5 q=25.0 size=    2304KiB time=00:00:04.51 bitrate=4178.8kbits/s speed=0.0371x elapsed=0:02:01.77    \nframe=  543 fps=4.4 q=14.0 size=    2304KiB time=00:00:04.52 bitrate=4171.1kbits/s speed=0.037x elapsed=0:02:02.30    \nframe=  546 fps=4.4 q=24.0 size=    2304KiB time=00:00:04.55 bitrate=4148.2kbits/s speed=0.037x elapsed=0:02:02.82    \nframe=  549 fps=4.5 q=25.0 size=    2304KiB time=00:00:04.57 bitrate=4125.5kbits/s speed=0.0371x elapsed=0:02:03.33    \nframe=  553 fps=4.5 q=26.0 size=    2304KiB time=00:00:04.60 bitrate=4095.7kbits/s speed=0.0372x elapsed=0:02:03.86    \nframe=  556 fps=4.5 q=26.0 size=    2304KiB time=00:00:04.63 bitrate=4073.6kbits/s speed=0.0373x elapsed=0:02:04.38    \nframe=  557 fps=4.5 q=26.0 size=    2304KiB time=00:00:04.64 bitrate=4066.3kbits/s speed=0.0372x elapsed=0:02:04.90    \nframe=  560 fps=4.5 q=24.0 size=    2304KiB time=00:00:04.66 bitrate=4044.5kbits/s speed=0.0372x elapsed=0:02:05.43    \nframe=  562 fps=4.5 q=25.0 size=    2304KiB time=00:00:04.68 bitrate=4030.1kbits/s speed=0.0372x elapsed=0:02:05.95    \nframe=  565 fps=4.5 q=25.0 size=    2304KiB time=00:00:04.70 bitrate=4008.7kbits/s speed=0.0372x elapsed=0:02:06.46    \nframe=  569 fps=4.5 q=24.0 size=    2304KiB time=00:00:04.74 bitrate=3980.5kbits/s speed=0.0373x elapsed=0:02:06.98    \nframe=  572 fps=4.5 q=25.0 size=    2304KiB time=00:00:04.76 bitrate=3959.7kbits/s speed=0.0374x elapsed=0:02:07.50    \nframe=  572 fps=4.5 q=25.0 size=    2304KiB time=00:00:04.76 bitrate=3959.7kbits/s speed=0.0372x elapsed=0:02:08.03    \nframe=  575 fps=4.5 q=22.0 size=    2304KiB time=00:00:04.79 bitrate=3939.0kbits/s speed=0.0373x elapsed=0:02:08.56    \nframe=  576 fps=4.5 q=23.0 size=    2304KiB time=00:00:04.80 bitrate=3932.2kbits/s speed=0.0372x elapsed=0:02:09.09    \nframe=  576 fps=4.4 q=23.0 size=    2304KiB time=00:00:04.80 bitrate=3932.2kbits/s speed=0.037x elapsed=0:02:09.61    \nframe=  576 fps=4.4 q=23.0 size=    2304KiB time=00:00:04.80 bitrate=3932.2kbits/s speed=0.0369x elapsed=0:02:10.14    \nframe=  576 fps=4.4 q=23.0 size=    2304KiB time=00:00:04.80 bitrate=3932.2kbits/s speed=0.0367x elapsed=0:02:10.66    \nframe=  576 fps=4.4 q=23.0 size=    2304KiB time=00:00:04.80 bitrate=3932.2kbits/s speed=0.0366x elapsed=0:02:11.18    \nframe=  576 fps=4.4 q=23.0 size=    2304KiB time=00:00:04.80 bitrate=3932.2kbits/s speed=0.0364x elapsed=0:02:11.70    \nframe=  576 fps=4.4 q=23.0 size=    2304KiB time=00:00:04.80 bitrate=3932.2kbits/s speed=0.0363x elapsed=0:02:12.22    \nframe=  576 fps=4.3 q=23.0 size=    2304KiB time=00:00:04.80 bitrate=3932.2kbits/s speed=0.0362x elapsed=0:02:12.75    \nframe=  576 fps=4.3 q=23.0 size=    2304KiB time=00:00:04.80 bitrate=3932.2kbits/s speed=0.036x elapsed=0:02:13.27    \n[out#0/webm @ 0000025e3d368e00] video:2907KiB audio:0KiB subtitle:0KiB other streams:0KiB global headers:0KiB muxing overhead: 0.163653%\nframe=  600 fps=4.5 q=23.0 Lsize=    2911KiB time=00:00:05.00 bitrate=4770.1kbits/s speed=0.0375x elapsed=0:02:13.38    \n",
  "seconds": 133.58932971954346,
  "probe_out": {}
}